<?xml version="1.0" standalone="no"?>
<!DOCTYPE svg PUBLIC "-//W3C//DTD SVG 20010904//EN"
 "http://www.w3.org/TR/2001/REC-SVG-20010904/DTD/svg10.dtd">
<svg version="1.0" xmlns="http://www.w3.org/2000/svg"
 width="192.000000pt" height="192.000000pt" viewBox="0 0 192.000000 192.000000"
 preserveAspectRatio="xMidYMid meet">
<metadata>
Created by potrace 1.11, written by Peter Selinger 2001-2013
</metadata>
<g transform="translate(0.000000,192.000000) scale(0.100000,-0.100000)"
fill="#000000" stroke="none">
<path d="M803 1873 c-21 -8 -15 -33 12 -45 30 -14 33 -33 4 -25 -13 3 -19 1
-16 -6 2 -7 15 -12 28 -12 39 0 38 40 0 53 -37 13 -41 26 -6 20 28 -6 34 6 9
16 -9 3 -16 6 -17 5 -1 0 -8 -3 -14 -6z"/>
<path d="M959 1859 c-16 -31 4 -71 33 -67 12 2 24 10 26 18 5 13 3 13 -12 1
-22 -18 -39 -3 -34 30 2 18 9 23 26 22 12 -2 22 2 22 7 0 19 -49 10 -61 -11z"/>
<path d="M1057 1856 c-4 -10 -6 -30 -6 -44 1 -17 3 -21 6 -9 7 26 43 22 43 -5
0 -31 16 -11 23 30 4 18 2 32 -3 32 -6 0 -10 -7 -10 -15 0 -23 -30 -18 -39 7
-7 19 -8 19 -14 4z"/>
<path d="M710 1850 c-13 -9 -13 -10 1 -10 9 0 20 -15 27 -37 l11 -38 -4 42
c-4 34 -2 42 12 46 12 3 10 5 -7 6 -14 0 -32 -4 -40 -9z"/>
<path d="M1157 1843 c-2 -5 -7 -24 -11 -44 -6 -34 -5 -37 21 -42 34 -6 46 1
15 10 -12 3 -22 12 -22 20 0 10 7 14 20 10 11 -3 20 -1 20 4 0 5 -7 9 -15 9
-8 0 -15 7 -15 15 0 11 7 14 28 10 22 -4 24 -4 7 4 -25 12 -43 13 -48 4z"/>
<path d="M660 1814 c14 -37 13 -38 -19 -14 -38 26 -43 16 -19 -35 l19 -40 -7
34 -6 34 27 -22 c16 -11 30 -19 33 -16 7 7 -20 85 -29 85 -5 0 -4 -12 1 -26z"/>
<path d="M1242 1787 c-16 -45 -15 -58 3 -27 l14 25 1 -35 c0 -33 1 -34 18 -16
12 13 13 20 5 23 -8 3 -10 15 -6 34 8 42 -20 39 -35 -4z"/>
<path d="M543 1787 c-28 -12 -29 -34 -4 -67 18 -22 21 -23 45 -10 14 7 24 15
22 17 -2 3 -13 0 -25 -6 -28 -15 -40 7 -15 27 18 13 18 14 -3 7 -27 -8 -31 10
-6 24 25 14 13 21 -14 8z"/>
<path d="M1294 1779 c-3 -6 -2 -14 4 -18 7 -4 8 -12 2 -21 -12 -18 -13 -30 -2
-30 7 0 32 57 32 73 0 11 -28 8 -36 -4z"/>
<path d="M1347 1741 c-9 -16 -17 -35 -17 -43 1 -7 10 4 21 25 24 46 21 59 -4
18z"/>
<path d="M445 1726 c-18 -13 -18 -14 4 -50 26 -41 32 -43 54 -18 44 49 -5 107
-58 68z m53 -52 c-15 -15 -17 -14 -34 11 -15 23 -15 28 -3 36 9 5 20 2 34 -11
18 -18 18 -21 3 -36z"/>
<path d="M1393 1728 c-41 -20 -33 -79 10 -77 22 0 22 0 -1 10 -27 10 -26 36 1
53 15 9 21 7 33 -8 10 -15 14 -16 14 -5 0 15 -19 40 -29 38 -4 0 -16 -5 -28
-11z"/>
<path d="M950 1699 c19 -6 45 -21 58 -35 15 -17 22 -20 22 -10 0 19 -61 56
-91 55 -19 -1 -16 -3 11 -10z"/>
<path d="M390 1683 c0 -5 9 -18 20 -28 11 -10 20 -24 20 -31 0 -23 -25 -22
-52 4 -16 14 -28 21 -28 16 0 -22 48 -56 69 -49 29 9 27 46 -4 75 -14 13 -25
19 -25 13z"/>
<path d="M710 1665 c0 -9 6 -12 15 -9 8 4 15 7 15 9 0 2 -7 5 -15 9 -9 3 -15
0 -15 -9z"/>
<path d="M1082 1648 c-35 -17 -61 -32 -59 -35 3 -2 33 10 66 27 34 17 66 28
71 25 6 -4 10 -1 10 4 0 17 -20 12 -88 -21z"/>
<path d="M1483 1663 c-7 -2 -13 -9 -13 -15 0 -6 7 -8 15 -4 8 3 15 1 15 -4 0
-14 -18 -21 -25 -10 -8 13 -45 13 -45 0 0 -5 9 -10 21 -10 12 0 23 -8 26 -20
7 -28 20 -25 26 8 3 15 9 35 12 45 7 17 -6 21 -32 10z"/>
<path d="M757 1649 c7 -7 15 -10 18 -7 3 3 -2 9 -12 12 -14 6 -15 5 -6 -5z"/>
<path d="M1132 1598 c-12 -28 -20 -53 -18 -55 2 -2 13 19 25 48 12 28 21 53
19 55 -3 2 -14 -20 -26 -48z"/>
<path d="M720 1636 c0 -2 8 -10 18 -17 15 -13 16 -12 3 4 -13 16 -21 21 -21
13z"/>
<path d="M795 1630 c3 -5 11 -10 16 -10 6 0 7 5 4 10 -3 6 -11 10 -16 10 -6 0
-7 -4 -4 -10z"/>
<path d="M303 1605 c-28 -27 -29 -35 -5 -28 10 2 26 -5 36 -16 11 -12 24 -21
29 -21 6 0 -1 13 -16 28 -18 19 -25 35 -21 45 8 21 4 20 -23 -8z"/>
<path d="M840 1615 c7 -8 17 -15 22 -15 5 0 3 7 -6 15 -8 8 -18 15 -22 15 -3
0 -1 -7 6 -15z"/>
<path d="M1526 1583 c-25 -25 -25 -27 -10 -45 10 -10 22 -18 27 -18 6 0 2 9
-8 20 -17 18 -16 20 11 44 16 14 24 26 18 26 -6 0 -23 -12 -38 -27z"/>
<path d="M763 1550 c12 -27 25 -50 29 -50 4 0 3 10 -2 23 -6 12 -15 34 -21 50
-6 15 -15 27 -19 27 -5 0 1 -22 13 -50z"/>
<path d="M968 1593 c7 -3 16 -2 19 1 4 3 -2 6 -13 5 -11 0 -14 -3 -6 -6z"/>
<path d="M240 1531 c-5 -11 -10 -24 -10 -30 0 -14 47 -14 55 -1 9 15 25 12 25
-5 0 -8 -7 -15 -15 -15 -8 0 -15 -4 -15 -10 0 -5 4 -10 8 -10 14 0 32 23 32
42 0 21 -39 25 -58 6 -6 -6 -15 -8 -19 -4 -5 4 0 13 10 20 19 15 22 26 7 26
-5 0 -14 -9 -20 -19z"/>
<path d="M865 1530 c-12 -5 5 -6 45 -3 43 3 86 0 126 -11 76 -20 74 -20 74 2
0 12 -3 13 -8 5 -6 -10 -20 -9 -62 2 -60 16 -144 18 -175 5z"/>
<path d="M818 1513 c7 -3 16 -2 19 1 4 3 -2 6 -13 5 -11 0 -14 -3 -6 -6z"/>
<path d="M1622 1479 c2 -20 -2 -34 -9 -36 -8 -3 -13 4 -13 16 0 12 -4 21 -10
21 -14 0 -12 -22 4 -43 21 -27 49 -11 44 25 -6 36 9 47 22 16 l10 -23 -3 25
c-1 18 -9 26 -25 28 -21 3 -23 0 -20 -29z"/>
<path d="M623 1493 c9 -2 23 -2 30 0 6 3 -1 5 -18 5 -16 0 -22 -2 -12 -5z"/>
<path d="M1245 1491 c-14 -5 -3 -8 35 -9 88 -1 154 -13 170 -31 9 -9 28 -42
44 -74 15 -32 30 -56 32 -54 7 6 -55 123 -74 139 -9 9 -35 18 -57 21 -111 15
-132 16 -150 8z"/>
<path d="M538 1481 c-26 -4 -50 -9 -53 -13 -9 -8 87 3 105 13 16 9 16 9 -52 0z"/>
<path d="M723 1473 c29 -5 37 -27 11 -37 -9 -3 -33 -6 -54 -6 -21 0 -41 -3
-43 -7 -7 -12 96 -3 111 9 6 6 12 19 12 29 0 15 -7 19 -32 18 -31 -2 -31 -2
-5 -6z"/>
<path d="M1183 1473 c9 -2 23 -2 30 0 6 3 -1 5 -18 5 -16 0 -22 -2 -12 -5z"/>
<path d="M840 1407 c0 -49 -2 -54 -34 -71 -96 -51 -149 -151 -145 -269 4 -103
49 -183 139 -248 40 -29 63 -33 173 -34 42 0 77 0 77 -1 0 -1 -7 -18 -15 -37
-8 -20 -14 -53 -14 -74 l2 -38 6 45 c10 71 29 101 96 155 62 50 115 118 115
148 0 8 7 23 16 31 9 9 11 16 4 16 -8 0 -9 14 -5 45 7 44 -9 139 -27 162 -5 6
-10 26 -10 43 -1 17 -6 34 -11 37 -7 4 -8 -6 -3 -28 l6 -33 -37 35 c-46 43
-87 69 -108 69 -11 0 -15 12 -15 50 0 28 -4 50 -10 50 -5 0 -10 -22 -10 -50 0
-48 1 -49 43 -68 64 -28 117 -80 144 -140 12 -29 23 -57 23 -62 0 -6 -104 -10
-275 -10 -270 0 -275 0 -275 20 0 51 60 131 133 176 35 23 37 27 37 79 0 30
-4 55 -10 55 -5 0 -10 -24 -10 -53z m385 -317 c0 -11 -14 -16 -52 -18 -48 -3
-53 -1 -53 18 0 19 5 21 53 18 38 -2 52 -7 52 -18z m-217 -12 c3 -15 -5 -18
-52 -18 -40 0 -56 4 -56 13 0 23 12 28 60 25 33 -2 46 -7 48 -20z m-208 -8 c0
-17 -7 -20 -50 -20 -43 0 -50 3 -50 20 0 17 7 20 50 20 43 0 50 -3 50 -20z
m328 -42 c3 -15 -4 -18 -46 -18 -54 0 -63 5 -55 26 8 23 97 15 101 -8z m-221
-22 c-5 -11 -20 -16 -52 -16 -38 0 -45 3 -45 19 0 16 8 20 43 23 48 3 62 -4
54 -26z m271 -35 c-5 -23 -91 -23 -96 1 -4 18 24 26 71 19 19 -2 27 -8 25 -20z
m-158 -11 c0 -17 -7 -20 -50 -20 -43 0 -50 3 -50 20 0 17 7 20 50 20 43 0 50
-3 50 -20z m-172 -7 c-2 -14 -15 -19 -51 -21 -42 -3 -47 -1 -47 17 0 18 6 21
51 21 43 0 50 -3 47 -17z m255 -43 c5 -18 0 -20 -49 -20 -38 0 -54 4 -54 13 0
22 11 27 56 27 33 0 43 -4 47 -20z m-163 -10 c0 -18 -7 -20 -55 -20 -48 0 -55
2 -55 20 0 18 7 20 55 20 48 0 55 -2 55 -20z m80 -60 c0 -17 -7 -20 -50 -20
-43 0 -50 3 -50 20 0 17 7 20 50 20 43 0 50 -3 50 -20z"/>
<path d="M1170 1452 c0 -15 46 -34 71 -29 19 3 17 5 -9 6 -19 0 -35 7 -38 16
-6 16 -24 21 -24 7z"/>
<path d="M1300 1410 c19 -11 52 -19 73 -20 25 0 37 -4 37 -14 0 -8 4 -17 9
-20 4 -3 6 6 3 19 -4 22 -10 25 -46 25 -23 0 -51 7 -62 15 -10 8 -26 14 -34
14 -8 0 1 -8 20 -19z"/>
<path d="M1646 1414 c-30 -30 -13 -74 29 -74 12 0 26 5 33 12 7 7 12 21 12 33
0 42 -44 59 -74 29z m61 -20 c7 -20 -22 -45 -43 -37 -14 5 -19 35 -7 46 12 13
44 7 50 -9z"/>
<path d="M170 1414 c0 -4 10 -23 23 -41 23 -34 44 -45 33 -18 -3 9 3 24 14 35
11 11 19 20 18 21 -37 7 -88 9 -88 3z m50 -24 c0 -5 -4 -10 -10 -10 -5 0 -10
5 -10 10 0 6 5 10 10 10 6 0 10 -4 10 -10z"/>
<path d="M441 1393 c-7 -15 -30 -48 -52 -73 -21 -24 -43 -58 -48 -75 -11 -41
-3 -92 16 -100 12 -4 13 -2 5 7 -11 14 -16 47 -14 86 1 12 19 41 41 65 38 42
76 105 68 113 -2 3 -10 -8 -16 -23z"/>
<path d="M560 1400 l-45 -7 40 -1 c22 -1 47 3 55 8 8 5 11 9 5 8 -5 0 -30 -4
-55 -8z"/>
<path d="M511 1373 c0 -6 -4 -20 -7 -30 -5 -14 -4 -15 5 -7 7 7 11 20 8 30 -3
11 -5 14 -6 7z"/>
<path d="M1217 1350 c-14 -17 -14 -20 -2 -20 8 0 15 7 15 15 0 8 4 15 9 15 11
0 73 -75 94 -115 9 -16 16 -25 17 -19 1 25 -88 144 -108 144 -4 0 -15 -9 -25
-20z"/>
<path d="M680 1346 c12 -16 12 -20 -1 -30 -16 -12 -83 -126 -77 -132 2 -2 15
17 28 41 14 25 32 46 42 46 31 2 36 4 43 11 13 13 -5 57 -28 69 -20 11 -21 11
-7 -5z m30 -34 c0 -10 -22 -32 -32 -32 -5 0 -3 9 4 20 13 20 28 27 28 12z"/>
<path d="M140 1342 c0 -5 10 -13 23 -19 21 -10 21 -10 -10 -17 -18 -4 -33 -11
-33 -15 0 -10 47 -31 68 -31 10 1 5 6 -13 14 l-30 13 30 8 c48 12 50 17 14 36
-38 20 -49 23 -49 11z"/>
<path d="M634 1323 c-25 -35 -41 -64 -21 -40 8 9 20 17 27 17 7 0 10 3 7 6 -3
4 -2 15 4 25 14 28 6 23 -17 -8z"/>
<path d="M1430 1334 c0 -5 13 -26 30 -46 36 -44 50 -78 50 -124 0 -29 3 -34
23 -34 13 0 32 9 42 20 21 23 11 27 -11 5 -25 -25 -44 -18 -44 15 0 31 -24
100 -38 110 -4 3 -18 18 -30 34 -12 16 -22 25 -22 20z"/>
<path d="M1244 1315 c4 -11 2 -22 -6 -27 -9 -5 -7 -8 8 -8 12 0 26 -11 34 -25
7 -14 15 -23 18 -21 2 3 -5 18 -17 34 -12 17 -21 35 -21 40 0 6 -5 14 -12 18
-8 5 -9 2 -4 -11z"/>
<path d="M465 1293 l-17 -28 23 22 c12 12 20 25 17 28 -3 3 -13 -7 -23 -22z"/>
<path d="M1687 1314 c-13 -13 -7 -62 8 -68 8 -3 15 -1 15 4 0 6 -4 10 -10 10
-17 0 -11 37 6 44 29 11 53 -2 47 -27 -5 -18 -3 -20 8 -9 10 9 11 17 3 30 -11
17 -64 29 -77 16z"/>
<path d="M1560 1291 c0 -10 19 -25 25 -20 1 2 -3 10 -11 17 -8 7 -14 8 -14 3z"/>
<path d="M432 1248 c-5 -7 -12 -29 -16 -48 -3 -19 -3 -28 0 -20 35 85 37 94
16 68z"/>
<path d="M561 1192 c-13 -38 -21 -82 -18 -98 4 -28 4 -28 6 4 0 18 10 60 21
93 12 34 19 63 17 65 -2 3 -14 -26 -26 -64z"/>
<path d="M143 1233 c-52 -7 -57 -25 -14 -50 l38 -22 -5 25 c-3 17 2 30 14 39
11 8 15 14 9 13 -5 -1 -24 -3 -42 -5z m7 -33 c0 -5 -7 -7 -15 -4 -8 4 -12 10
-9 15 6 11 24 2 24 -11z"/>
<path d="M1592 1210 c0 -19 2 -27 5 -17 2 9 2 25 0 35 -3 9 -5 1 -5 -18z"/>
<path d="M1733 1229 c-18 -5 -33 -14 -33 -19 0 -10 59 5 74 20 12 12 3 12 -41
-1z"/>
<path d="M1307 1199 c4 -13 8 -18 11 -10 2 7 -1 18 -6 23 -8 8 -9 4 -5 -13z"/>
<path d="M1723 1183 c-14 -5 -18 -63 -4 -63 4 0 6 11 3 25 -5 29 24 36 31 8 4
-17 5 -17 6 0 2 25 31 21 31 -5 0 -12 3 -19 6 -15 4 3 4 18 0 32 -5 19 -12 25
-34 24 -15 0 -33 -3 -39 -6z"/>
<path d="M1361 1164 c0 -11 3 -14 6 -6 3 7 2 16 -1 19 -3 4 -6 -2 -5 -13z"/>
<path d="M586 1159 c-2 -8 -9 -29 -15 -48 -6 -19 -11 -52 -12 -75 l-1 -41 -9
34 c-6 18 -12 32 -13 30 -8 -9 15 -141 32 -190 24 -69 51 -120 52 -97 0 9 -4
20 -10 23 -5 3 -19 36 -30 73 -23 73 -21 162 6 252 7 24 11 46 9 48 -3 3 -6
-1 -9 -9z"/>
<path d="M1331 1134 c6 -21 13 -41 16 -44 9 -9 -9 65 -18 74 -4 5 -3 -8 2 -30z"/>
<path d="M80 1141 c0 -6 7 -11 15 -11 22 0 19 -40 -2 -41 -28 -1 16 -18 47
-18 l25 0 -23 10 c-30 12 -26 45 6 42 12 -2 22 2 22 7 0 6 -13 10 -29 10 -16
0 -36 3 -45 6 -9 3 -16 1 -16 -5z"/>
<path d="M1371 1070 c-3 -57 -5 -68 -11 -45 -5 22 -7 13 -8 -38 0 -71 -27
-158 -64 -206 -10 -14 -16 -32 -13 -43 5 -13 2 -16 -9 -12 -8 3 -19 -3 -25
-14 -26 -48 -214 -117 -300 -110 l-36 3 -6 58 c-4 32 -9 60 -12 63 -3 3 -3
-22 0 -55 5 -51 3 -61 -10 -61 -33 0 -154 43 -184 66 -17 13 -37 24 -43 24 -6
0 -8 4 -5 10 3 5 1 18 -5 27 -9 16 -10 15 -5 -4 8 -28 -1 -29 -40 -5 l-29 18
-43 -105 c-35 -84 -41 -108 -31 -118 29 -28 177 -104 252 -130 69 -23 98 -27
196 -27 70 -1 134 5 165 13 107 31 252 108 334 178 l34 29 -67 92 c-37 51 -70
92 -74 92 -3 0 -14 -7 -24 -17 -26 -24 -33 -9 -11 24 51 73 86 207 80 304 l-3
64 -3 -75z m-19 -342 c10 -12 28 -37 39 -55 11 -18 24 -33 28 -33 7 0 31 -43
31 -55 0 -2 -32 -27 -72 -55 -187 -136 -384 -182 -583 -136 -70 17 -228 89
-275 125 l-25 20 34 83 c18 46 37 86 40 90 4 4 51 -15 106 -42 55 -28 127 -57
160 -65 152 -38 309 -1 440 104 28 22 52 40 54 40 2 1 12 -9 23 -21z"/>
<path d="M796 538 c-9 -12 -16 -29 -16 -38 0 -46 69 -82 84 -44 11 29 6 44
-14 44 -11 0 -20 -4 -20 -10 0 -5 5 -10 10 -10 6 0 10 -5 10 -11 0 -6 -10 -9
-22 -7 -28 4 -37 48 -14 68 13 10 19 10 31 0 20 -17 32 -5 15 15 -18 22 -46
19 -64 -7z"/>
<path d="M1066 545 c-9 -9 -16 -20 -16 -24 0 -15 25 -31 47 -31 13 0 23 -4 23
-9 0 -16 -20 -23 -34 -12 -17 14 -29 2 -15 -16 18 -21 45 -15 57 11 12 26 5
36 -30 49 -26 9 -23 30 3 22 15 -5 20 -3 17 6 -7 21 -33 22 -52 4z"/>
<path d="M886 525 c-8 -22 2 -42 25 -48 21 -6 26 -27 6 -27 -7 0 -19 6 -26 13
-10 10 -12 8 -9 -8 2 -14 12 -21 36 -23 28 -3 32 0 32 22 0 15 -11 33 -27 46
l-28 21 34 -5 c29 -5 32 -4 21 9 -16 19 -56 19 -64 0z"/>
<path d="M980 525 c-13 -16 -16 -67 -5 -85 3 -5 17 -10 29 -10 26 0 53 25 38
34 -6 3 -16 -1 -23 -10 -12 -14 -14 -14 -25 0 -6 9 -9 28 -6 42 4 21 9 25 28
21 16 -3 24 0 24 9 0 19 -44 18 -60 -1z"/>
<path d="M1800 1091 c0 -4 -19 -13 -42 -18 l-43 -11 42 -1 c23 0 44 -7 46 -13
3 -7 6 2 6 20 1 17 -1 32 -4 32 -3 0 -5 -4 -5 -9z"/>
<path d="M1297 1036 c-4 -10 -5 -21 -2 -24 9 -9 17 6 13 25 -3 17 -4 17 -11
-1z"/>
<path d="M73 1024 c-8 -23 14 -64 35 -64 51 0 73 71 25 78 -16 2 -23 -2 -23
-12 0 -9 5 -16 10 -16 6 0 10 5 10 12 0 8 3 9 10 2 19 -19 0 -45 -29 -42 -22
2 -26 8 -24 31 2 30 -4 35 -14 11z"/>
<path d="M611 1014 c0 -11 3 -14 6 -6 3 7 2 16 -1 19 -3 4 -6 -2 -5 -13z"/>
<path d="M1784 1005 c-10 -8 -29 -15 -42 -15 -28 0 -21 -16 10 -23 13 -2 32
-8 43 -12 20 -7 20 -6 1 9 -20 16 -20 16 0 30 10 8 16 17 13 20 -3 3 -14 -1
-25 -9z"/>
<path d="M1286 975 c-3 -9 -6 -24 -5 -33 0 -9 5 -4 10 12 9 32 6 48 -5 21z"/>
<path d="M1261 874 c0 -11 3 -14 6 -6 3 7 2 16 -1 19 -3 4 -6 -2 -5 -13z"/>
<path d="M652 855 c0 -16 2 -22 5 -12 2 9 2 23 0 30 -3 6 -5 -1 -5 -18z"/>
<path d="M850 784 c0 -6 7 -19 15 -30 8 -10 14 -14 14 -9 0 6 -6 19 -14 29 -8
11 -15 15 -15 10z"/>
<path d="M301 444 c-38 -27 -24 -84 20 -84 17 0 9 18 -11 23 -24 6 -25 20 -4
41 22 22 39 20 52 -6 10 -22 11 -22 11 -2 1 30 -40 47 -68 28z"/>
<path d="M365 370 c-16 -16 -25 -33 -21 -37 4 -4 11 -1 16 6 4 8 15 11 25 7
13 -5 16 -13 11 -34 l-7 -27 32 33 c31 33 34 57 3 32 -13 -12 -17 -11 -25 1
-4 8 -6 22 -3 32 7 24 2 22 -31 -13z"/>
<path d="M1464 365 c3 -13 11 -37 18 -52 11 -27 12 -27 15 -6 3 14 14 25 29
29 33 8 30 16 -15 37 -49 22 -54 22 -47 -8z m46 -17 c0 -13 -23 -5 -28 10 -2
7 2 10 12 6 9 -3 16 -11 16 -16z"/>
<path d="M1420 338 c0 -8 5 -19 12 -26 16 -16 -5 -16 -34 -1 -11 6 -22 8 -25
5 -8 -7 29 -76 39 -76 12 0 10 14 -4 28 -18 18 -4 24 26 11 35 -16 41 -7 22
29 -18 35 -36 50 -36 30z"/>
<path d="M441 314 c-12 -15 -21 -33 -21 -40 0 -15 48 -50 56 -41 3 3 -4 10
-15 17 -24 12 -30 46 -6 36 44 -18 49 -17 26 3 -29 26 -21 39 14 23 14 -6 25
-8 25 -3 0 6 -43 31 -55 31 -2 0 -13 -12 -24 -26z"/>
<path d="M515 259 c-15 -22 -23 -44 -19 -47 4 -4 9 -2 11 4 2 6 10 20 18 30
14 18 14 16 9 -13 -8 -39 13 -46 34 -12 7 12 16 18 19 15 3 -3 0 -12 -7 -20
-6 -9 -10 -21 -8 -28 6 -17 40 49 36 69 -2 12 -8 11 -32 -8 l-28 -22 6 30 c11
48 -10 49 -39 2z"/>
<path d="M1310 248 c0 -18 5 -40 10 -48 8 -13 10 -12 10 3 0 16 16 22 48 18
20 -3 14 12 -15 36 -37 32 -53 29 -53 -9z m38 -6 c6 -18 -15 -14 -22 4 -4 10
-1 14 6 12 6 -2 14 -10 16 -16z"/>
<path d="M1258 254 c-4 -3 -4 -12 -1 -20 8 -22 -26 -29 -42 -8 -20 26 -19 4 2
-42 16 -36 17 -37 21 -14 6 36 24 43 44 17 12 -15 17 -17 17 -7 0 22 -34 82
-41 74z"/>
<path d="M617 215 c-19 -41 -21 -55 -7 -55 6 0 10 9 10 19 0 11 4 22 9 25 11
7 21 46 12 46 -4 0 -15 -16 -24 -35z"/>
<path d="M660 220 c-9 -16 -6 -22 15 -36 18 -12 23 -20 16 -27 -7 -7 -17 -4
-32 9 -21 19 -21 19 -18 -1 6 -27 69 -35 69 -9 0 10 -10 28 -22 41 -16 17 -18
23 -7 23 8 0 20 -5 27 -12 9 -9 12 -8 12 4 0 15 -19 28 -40 28 -5 0 -14 -9
-20 -20z"/>
<path d="M749 206 c8 -9 10 -27 5 -52 -5 -26 -4 -35 5 -30 6 4 11 16 11 26 0
33 11 49 28 43 12 -4 14 -3 7 4 -5 6 -23 14 -39 17 -25 6 -28 5 -17 -8z"/>
<path d="M1122 208 c-17 -17 -15 -42 7 -69 19 -23 21 -23 48 -8 19 10 27 22
25 35 -5 25 -6 26 -26 18 -15 -6 -15 -7 1 -19 15 -11 15 -13 -7 -20 -17 -5
-27 -3 -37 11 -21 28 -15 43 20 53 29 8 30 9 7 10 -15 1 -31 -4 -38 -11z"/>
<path d="M816 169 c-9 -44 -8 -59 4 -59 6 0 10 7 10 15 0 21 18 19 32 -5 17
-27 32 -26 17 1 -9 18 -8 24 5 31 25 14 2 48 -33 48 -24 0 -30 -5 -35 -31z
m54 6 c11 -13 8 -15 -13 -15 -19 0 -25 4 -21 15 4 8 10 15 14 15 4 0 13 -7 20
-15z"/>
<path d="M911 185 c0 -5 6 -19 14 -29 8 -11 15 -29 16 -40 1 -18 2 -17 8 5 5
14 14 35 20 47 14 26 4 29 -15 5 -12 -17 -14 -17 -28 2 -8 11 -15 16 -15 10z"/>
<path d="M1040 140 c0 -5 5 -10 10 -10 6 0 10 5 10 10 0 6 -4 10 -10 10 -5 0
-10 -4 -10 -10z"/>
</g>
</svg>
